<?xml version="1.0" encoding="UTF-8"?>
<!-- Generator: Adobe Illustrator 25.4.1, SVG Export Plug-In . SVG Version: 6.00 Build 0)  -->
<svg xmlns="http://www.w3.org/2000/svg" xmlns:xlink="http://www.w3.org/1999/xlink" version="1.1" id="Capa_1" x="0px" y="0px" viewBox="0 0 512 512" style="enable-background:new 0 0 512 512;" xml:space="preserve" width="512" height="512">
<g>
	<path style="fill:#95BF47;" d="M425.834,98.591c-0.354-2.585-2.618-4.015-4.485-4.171c-1.867-0.156-38.313-0.71-38.313-0.71   s-30.481-29.603-33.492-32.616s-8.893-2.099-11.176-1.427c-0.034,0.01-5.72,1.771-15.317,4.742   c-1.601-5.202-3.963-11.591-7.329-18.011c-10.854-20.704-26.743-31.663-45.948-31.691c-0.022,0-0.042,0-0.065,0   c-1.331,0-2.658,0.125-3.986,0.246c-0.564-0.68-1.135-1.354-1.736-1.997c-8.361-8.949-19.098-13.309-31.949-12.932   c-24.808,0.711-49.501,18.624-69.53,50.436c-14.099,22.39-24.81,50.517-27.856,72.286c-28.478,8.819-48.403,14.99-48.834,15.125   c-14.375,4.511-14.827,4.963-16.712,18.506c-1.427,10.253-39.036,301.111-39.036,301.111L345.304,512l136.624-33.959   C481.928,478.041,426.187,101.176,425.834,98.591z M152.312,117.276c8.524-39.856,41.92-99.649,80.203-100.75   c5.824-0.122,10.729,1.156,14.918,3.913c-6.7,3.479-13.181,8.479-19.26,14.999c-15.756,16.902-27.825,43.146-32.638,68.453   C180.515,108.542,165.826,113.091,152.312,117.276z M266.306,81.978c-16.514,5.113-34.543,10.696-52.629,16.296   c5.092-19.478,14.73-38.871,26.574-51.576c4.406-4.726,10.57-10,17.868-13.011C264.985,47.994,266.472,68.276,266.306,81.978z    M282.796,76.872c-0.183-12.561-1.683-30.032-7.534-45.135c18.821,3.566,28.088,24.862,31.999,37.56   C300.008,71.542,291.746,74.1,282.796,76.872z"></path>
	<path style="fill:#5E8E3E;" d="M421.349,94.42c-1.867-0.156-38.313-0.71-38.313-0.71s-30.481-29.603-33.492-32.616   c-1.123-1.124-2.646-1.699-4.232-1.947l0.008,452.85l136.608-33.956c0,0-55.74-376.865-56.094-379.45   C425.48,96.006,423.216,94.576,421.349,94.42z"></path>
	<path style="fill:#FFFFFF;" d="M269.592,164.668l-15.869,59.361c0,0-17.7-8.06-38.685-6.735   c-30.769,1.943-31.096,21.352-30.789,26.216c1.676,26.549,71.518,32.35,75.444,94.532c3.089,48.922-25.949,82.386-67.79,85.028   c-50.209,3.17-77.856-26.457-77.856-26.457l10.639-45.265c0,0,27.823,20.992,50.095,19.586   c14.548-0.919,19.746-12.751,19.218-21.119c-2.187-34.632-59.059-32.592-62.652-89.495c-3.024-47.892,28.424-96.409,97.816-100.791   C255.9,157.842,269.592,164.668,269.592,164.668z"></path>
</g>















</svg>
